<svg viewBox="0 0 118 118" fill="none" xmlns="http://www.w3.org/2000/svg">
<path d="M86.0659 84.5642C86.2889 86.0432 84.8689 87.2346 83.4512 86.7582L73.0393 83.2596C71.2667 82.664 71.2083 80.1782 72.9509 79.5L76.7754 78.0114C77.1641 77.8601 77.4958 77.5911 77.724 77.242L80.7358 72.6353C81.7411 71.0977 84.1136 71.6151 84.3875 73.4316L86.0659 84.5642Z" fill="#6AB7CD"/>
<path d="M89.8576 58.9357C89.8576 74.3641 75.9784 86.8713 58.8576 86.8713C41.7368 86.8713 27.8576 74.3641 27.8576 58.9357C27.8576 43.5072 41.7368 31 58.8576 31C75.9784 31 89.8576 43.5072 89.8576 58.9357ZM32.2986 58.9357C32.2986 72.1539 44.1895 82.8693 58.8576 82.8693C73.5257 82.8693 85.4166 72.1539 85.4166 58.9357C85.4166 45.7175 73.5257 35.002 58.8576 35.002C44.1895 35.002 32.2986 45.7175 32.2986 58.9357Z" fill="#6AB7CD"/>
<path d="M54.8576 58.9357C54.8576 66.8988 47.6942 73.3542 38.8576 73.3542C30.021 73.3542 29.3576 66.8988 29.3576 58.9357C29.3576 50.9727 30.021 44.5173 38.8576 44.5173C47.6942 44.5173 54.8576 50.9727 54.8576 58.9357Z" fill="#6AB7CD"/>
<rect x="67.8576" y="49.0229" width="20" height="3.6046" rx="1.8023" fill="#6AB7CD"/>
<rect x="67.8576" y="65.2437" width="20" height="3.6046" rx="1.8023" fill="#6AB7CD"/>
<rect x="59.8576" y="54.4299" width="28" height="3.6046" rx="1.8023" fill="#6AB7CD"/>
<rect x="59.8576" y="59.8369" width="28" height="3.6046" rx="1.8023" fill="#6AB7CD"/>
</svg>
